<svg width="261" height="30" viewBox="0 0 261 30" fill="none" xmlns="http://www.w3.org/2000/svg">
<path d="M0 3.87891C0.572917 3.87891 1.04818 4.04818 1.42578 4.38672C1.80339 4.72526 2.1224 5.16797 2.38281 5.71484C2.64323 6.2487 2.85807 6.86719 3.02734 7.57031C3.19661 8.26042 3.35938 8.97656 3.51562 9.71875C3.67188 10.4479 3.82812 11.1641 3.98438 11.8672C4.15365 12.5573 4.36198 13.1758 4.60938 13.7227C4.86979 14.2695 5.17578 14.7122 5.52734 15.0508C5.89193 15.3763 6.35417 15.5391 6.91406 15.5391C6.9401 15.5391 6.97266 15.5326 7.01172 15.5195C7.03776 15.5065 7.07031 15.4935 7.10938 15.4805C7.16146 15.4674 7.23958 15.4089 7.34375 15.3047C7.44792 15.1875 7.51302 15.1094 7.53906 15.0703C7.5651 15.0052 7.61719 14.7904 7.69531 14.4258C7.77344 14.0612 7.8776 13.599 8.00781 13.0391C8.15104 12.4792 8.30729 11.8477 8.47656 11.1445C8.64583 10.4414 8.82161 9.73177 9.00391 9.01562C9.19922 8.28646 9.39453 7.58333 9.58984 6.90625C9.78516 6.21615 9.97396 5.60417 10.1562 5.07031C10.3385 4.53646 10.5078 4.11328 10.6641 3.80078C10.8333 3.47526 10.9766 3.3125 11.0938 3.3125C11.25 3.3125 11.3737 3.34505 11.4648 3.41016C11.556 3.47526 11.6211 3.5599 11.6602 3.66406C11.6992 3.76823 11.7253 3.88542 11.7383 4.01562C11.7513 4.13281 11.7578 4.25 11.7578 4.36719C11.7578 4.5625 11.7188 4.90755 11.6406 5.40234C11.5755 5.89714 11.4779 6.48307 11.3477 7.16016C11.2305 7.82422 11.0807 8.55339 10.8984 9.34766C10.7292 10.1419 10.5404 10.9492 10.332 11.7695C10.1237 12.5768 9.89583 13.3581 9.64844 14.1133C9.40104 14.8555 9.14714 15.5195 8.88672 16.1055C8.63932 16.6784 8.37891 17.1406 8.10547 17.4922C7.84505 17.8307 7.58464 18 7.32422 18C6.97266 18 6.63411 17.9023 6.30859 17.707C5.98307 17.5117 5.67708 17.2578 5.39062 16.9453C5.10417 16.6328 4.83073 16.2812 4.57031 15.8906C4.32292 15.487 4.09505 15.0833 3.88672 14.6797C3.69141 14.276 3.50911 13.8919 3.33984 13.5273C3.17057 13.1628 3.03385 12.8438 2.92969 12.5703C2.78646 12.2188 2.61068 11.7956 2.40234 11.3008C2.20703 10.793 1.9987 10.2656 1.77734 9.71875C1.56901 9.17188 1.35417 8.625 1.13281 8.07812C0.924479 7.51823 0.735677 7.02344 0.566406 6.59375C0.397135 6.15104 0.260417 5.78646 0.15625 5.5C0.0520833 5.21354 0 5.05729 0 5.03125V3.87891Z" fill="#EFEFEF"/>
<path d="M12.9492 12.5703C12.9492 11.8672 13.0339 11.1641 13.2031 10.4609C13.3724 9.75781 13.6393 9.1263 14.0039 8.56641C14.3815 8.00651 14.8633 7.55078 15.4492 7.19922C16.0482 6.84766 16.7708 6.67188 17.6172 6.67188C18.099 6.67188 18.5221 6.76302 18.8867 6.94531C19.2513 7.11458 19.5573 7.34245 19.8047 7.62891C20.0521 7.91536 20.2344 8.25391 20.3516 8.64453C20.4818 9.02214 20.5469 9.41927 20.5469 9.83594C20.5469 10.5 20.3906 11.1445 20.0781 11.7695C19.7786 12.3945 19.3685 12.9479 18.8477 13.4297C18.3398 13.8984 17.7539 14.2565 17.0898 14.5039C16.4258 14.7383 15.7487 14.7904 15.0586 14.6602C15.0716 15.0378 15.1953 15.3438 15.4297 15.5781C15.6771 15.7995 15.9701 15.9688 16.3086 16.0859C16.6471 16.2031 16.9987 16.2812 17.3633 16.3203C17.7279 16.3464 18.0534 16.3594 18.3398 16.3594C18.6393 16.3594 18.9193 16.3333 19.1797 16.2812C19.4401 16.2292 19.7005 16.1706 19.9609 16.1055C20.2214 16.0404 20.4818 15.9818 20.7422 15.9297C21.0156 15.8776 21.3021 15.8516 21.6016 15.8516C21.7188 15.8516 21.8359 15.8581 21.9531 15.8711C22.0703 15.8841 22.181 15.9167 22.2852 15.9688C22.3893 16.0078 22.474 16.0794 22.5391 16.1836C22.6042 16.2747 22.6367 16.3919 22.6367 16.5352C22.6367 16.7826 22.5456 16.9909 22.3633 17.1602C22.181 17.3164 21.9466 17.4531 21.6602 17.5703C21.3867 17.6875 21.0807 17.7786 20.7422 17.8438C20.4036 17.8958 20.0716 17.9414 19.7461 17.9805C19.4336 18.0065 19.1406 18.0195 18.8672 18.0195C18.6068 18.0326 18.4115 18.0391 18.2812 18.0391C17.4479 18.0391 16.6992 17.9089 16.0352 17.6484C15.3711 17.375 14.8112 17.0039 14.3555 16.5352C13.8997 16.0534 13.5482 15.4805 13.3008 14.8164C13.0664 14.1393 12.9492 13.3906 12.9492 12.5703ZM15.0195 11.3008C15.0195 11.7565 15.0781 12.0885 15.1953 12.2969C15.3255 12.5052 15.6315 12.6094 16.1133 12.6094C16.4518 12.6094 16.7839 12.5508 17.1094 12.4336C17.4349 12.3034 17.7279 12.1276 17.9883 11.9062C18.2617 11.6849 18.4766 11.4245 18.6328 11.125C18.7891 10.8255 18.8672 10.5 18.8672 10.1484C18.8672 9.95312 18.8477 9.7513 18.8086 9.54297C18.7826 9.33464 18.7174 9.14583 18.6133 8.97656C18.5091 8.79427 18.3724 8.65104 18.2031 8.54688C18.0469 8.42969 17.8385 8.37109 17.5781 8.37109C17.1875 8.37109 16.8294 8.46224 16.5039 8.64453C16.1914 8.8138 15.9245 9.04167 15.7031 9.32812C15.4818 9.60156 15.3125 9.91406 15.1953 10.2656C15.0781 10.6042 15.0195 10.9492 15.0195 11.3008Z" fill="#EFEFEF"/>
<path d="M28.8867 28.3906C29.6159 28.3906 30.2669 28.2539 30.8398 27.9805C31.4128 27.7201 31.8945 27.3555 32.2852 26.8867C32.6888 26.431 32.9948 25.9036 33.2031 25.3047C33.4245 24.7188 33.5352 24.1068 33.5352 23.4688C33.5352 23.1432 33.5156 22.7135 33.4766 22.1797C33.4505 21.6458 33.4049 21.0664 33.3398 20.4414C33.2747 19.8164 33.1771 19.1784 33.0469 18.5273C32.9297 17.8763 32.7799 17.2643 32.5977 16.6914C32.4154 16.1055 32.1875 15.5977 31.9141 15.168C31.6536 14.7253 31.3477 14.4128 30.9961 14.2305C30.6576 14.4909 30.3255 14.7318 30 14.9531C29.6745 15.1615 29.3359 15.3372 28.9844 15.4805C28.6328 15.6237 28.2682 15.7409 27.8906 15.832C27.513 15.9102 27.1094 15.9492 26.6797 15.9492C26.1198 15.9492 25.638 15.8971 25.2344 15.793C24.8438 15.6888 24.5117 15.513 24.2383 15.2656C23.9779 15.0182 23.7826 14.6927 23.6523 14.2891C23.5221 13.8854 23.457 13.3776 23.457 12.7656C23.457 12.3359 23.5612 11.9193 23.7695 11.5156C23.9779 11.099 24.2513 10.7148 24.5898 10.3633C24.9414 9.9987 25.332 9.66667 25.7617 9.36719C26.2044 9.06771 26.6536 8.80729 27.1094 8.58594C27.5781 8.36458 28.0339 8.19531 28.4766 8.07812C28.9323 7.96094 29.3359 7.90234 29.6875 7.90234C30.026 7.90234 30.306 7.91536 30.5273 7.94141C30.7487 7.95443 30.9375 8.00651 31.0938 8.09766C31.25 8.17578 31.3802 8.30599 31.4844 8.48828C31.6016 8.65755 31.7122 8.89193 31.8164 9.19141C32.1159 10.207 32.4609 11.3008 32.8516 12.4727C33.2422 13.6445 33.6133 14.849 33.9648 16.0859C34.3164 17.3229 34.6094 18.5664 34.8438 19.8164C35.0911 21.0794 35.2148 22.2969 35.2148 23.4688C35.2148 24.5104 35.0651 25.3893 34.7656 26.1055C34.4792 26.8346 34.0951 27.4271 33.6133 27.8828C33.1445 28.3516 32.6042 28.7096 31.9922 28.957C31.3932 29.2044 30.7878 29.3607 30.1758 29.4258C29.5638 29.5039 28.9714 29.5234 28.3984 29.4844C27.8255 29.4453 27.3307 29.3672 26.9141 29.25C26.4974 29.1458 26.1784 29.0221 25.957 28.8789C25.7487 28.7357 25.6966 28.612 25.8008 28.5078C25.918 28.4167 26.2174 28.3516 26.6992 28.3125C27.181 28.2734 27.9102 28.2995 28.8867 28.3906ZM29.1602 9.54297C28.1966 9.7513 27.4154 10.0443 26.8164 10.4219C26.2305 10.7865 25.7878 11.1836 25.4883 11.6133C25.2018 12.0299 25.0456 12.4531 25.0195 12.8828C24.9935 13.2995 25.0716 13.6576 25.2539 13.957C25.4362 14.2565 25.6966 14.4844 26.0352 14.6406C26.3867 14.7839 26.7839 14.7904 27.2266 14.6602C27.6693 14.5169 28.138 14.2174 28.6328 13.7617C29.1406 13.306 29.6484 12.6289 30.1562 11.7305C30.1562 11.5091 30.1562 11.2682 30.1562 11.0078C30.1693 10.7474 30.1497 10.513 30.0977 10.3047C30.0456 10.0833 29.9479 9.90104 29.8047 9.75781C29.6615 9.61458 29.4466 9.54297 29.1602 9.54297Z" fill="#EFEFEF"/>
<path d="M40.1953 28.3906C40.9245 28.3906 41.5755 28.2539 42.1484 27.9805C42.7214 27.7201 43.2031 27.3555 43.5938 26.8867C43.9974 26.431 44.3034 25.9036 44.5117 25.3047C44.7331 24.7188 44.8438 24.1068 44.8438 23.4688C44.8438 23.1432 44.8242 22.7135 44.7852 22.1797C44.7591 21.6458 44.7135 21.0664 44.6484 20.4414C44.5833 19.8164 44.4857 19.1784 44.3555 18.5273C44.2383 17.8763 44.0885 17.2643 43.9062 16.6914C43.724 16.1055 43.4961 15.5977 43.2227 15.168C42.9622 14.7253 42.6562 14.4128 42.3047 14.2305C41.9661 14.4909 41.6341 14.7318 41.3086 14.9531C40.9831 15.1615 40.6445 15.3372 40.293 15.4805C39.9414 15.6237 39.5768 15.7409 39.1992 15.832C38.8216 15.9102 38.418 15.9492 37.9883 15.9492C37.4284 15.9492 36.9466 15.8971 36.543 15.793C36.1523 15.6888 35.8203 15.513 35.5469 15.2656C35.2865 15.0182 35.0911 14.6927 34.9609 14.2891C34.8307 13.8854 34.7656 13.3776 34.7656 12.7656C34.7656 12.3359 34.8698 11.9193 35.0781 11.5156C35.2865 11.099 35.5599 10.7148 35.8984 10.3633C36.25 9.9987 36.6406 9.66667 37.0703 9.36719C37.513 9.06771 37.9622 8.80729 38.418 8.58594C38.8867 8.36458 39.3424 8.19531 39.7852 8.07812C40.2409 7.96094 40.6445 7.90234 40.9961 7.90234C41.3346 7.90234 41.6146 7.91536 41.8359 7.94141C42.0573 7.95443 42.2461 8.00651 42.4023 8.09766C42.5586 8.17578 42.6888 8.30599 42.793 8.48828C42.9102 8.65755 43.0208 8.89193 43.125 9.19141C43.4245 10.207 43.7695 11.3008 44.1602 12.4727C44.5508 13.6445 44.9219 14.849 45.2734 16.0859C45.625 17.3229 45.918 18.5664 46.1523 19.8164C46.3997 21.0794 46.5234 22.2969 46.5234 23.4688C46.5234 24.5104 46.3737 25.3893 46.0742 26.1055C45.7878 26.8346 45.4036 27.4271 44.9219 27.8828C44.4531 28.3516 43.9128 28.7096 43.3008 28.957C42.7018 29.2044 42.0964 29.3607 41.4844 29.4258C40.8724 29.5039 40.2799 29.5234 39.707 29.4844C39.1341 29.4453 38.6393 29.3672 38.2227 29.25C37.806 29.1458 37.487 29.0221 37.2656 28.8789C37.0573 28.7357 37.0052 28.612 37.1094 28.5078C37.2266 28.4167 37.526 28.3516 38.0078 28.3125C38.4896 28.2734 39.2188 28.2995 40.1953 28.3906ZM40.4688 9.54297C39.5052 9.7513 38.724 10.0443 38.125 10.4219C37.5391 10.7865 37.0964 11.1836 36.7969 11.6133C36.5104 12.0299 36.3542 12.4531 36.3281 12.8828C36.3021 13.2995 36.3802 13.6576 36.5625 13.957C36.7448 14.2565 37.0052 14.4844 37.3438 14.6406C37.6953 14.7839 38.0924 14.7904 38.5352 14.6602C38.9779 14.5169 39.4466 14.2174 39.9414 13.7617C40.4492 13.306 40.957 12.6289 41.4648 11.7305C41.4648 11.5091 41.4648 11.2682 41.4648 11.0078C41.4779 10.7474 41.4583 10.513 41.4062 10.3047C41.3542 10.0833 41.2565 9.90104 41.1133 9.75781C40.9701 9.61458 40.7552 9.54297 40.4688 9.54297Z" fill="#EFEFEF"/>
<path d="M47.5586 11.6523C47.5586 11.6133 47.5651 11.5417 47.5781 11.4375C47.5911 11.3203 47.5977 11.2552 47.5977 11.2422C47.806 11.2422 48.0859 11.2292 48.4375 11.2031C48.8021 11.1641 49.1992 11.1315 49.6289 11.1055C50.0586 11.0664 50.5013 11.0273 50.957 10.9883C51.4258 10.9492 51.8685 10.9232 52.2852 10.9102C52.7018 10.8971 53.0859 10.8906 53.4375 10.8906C53.7891 10.8906 54.0625 10.9102 54.2578 10.9492C54.4922 10.9492 54.6549 10.9753 54.7461 11.0273C54.8503 11.0794 54.9023 11.2552 54.9023 11.5547C54.5117 11.8151 54.0234 12.0104 53.4375 12.1406C52.8516 12.2578 52.2526 12.3424 51.6406 12.3945C51.0286 12.4466 50.4297 12.4727 49.8438 12.4727C49.2708 12.4727 48.8021 12.4792 48.4375 12.4922C48.0859 12.5182 47.8516 12.4466 47.7344 12.2773C47.6172 12.1081 47.5586 11.8997 47.5586 11.6523Z" fill="#EFEFEF"/>
<path d="M62.3828 15.2852C62.3828 14.5951 62.2982 13.8464 62.1289 13.0391C61.9596 12.2318 61.7773 11.4049 61.582 10.5586C61.3867 9.71224 61.1979 8.8724 61.0156 8.03906C60.8333 7.19271 60.7357 6.39844 60.7227 5.65625H56.3672C56.3672 5.55208 56.3672 5.40234 56.3672 5.20703C56.3672 5.01172 56.3867 4.81641 56.4258 4.62109C56.4648 4.41276 56.5234 4.23047 56.6016 4.07422C56.6797 3.90495 56.7969 3.80078 56.9531 3.76172H67.6953C67.6823 4.17839 67.5977 4.4974 67.4414 4.71875C67.2852 4.9401 67.0768 5.10938 66.8164 5.22656C66.569 5.34375 66.2891 5.42188 65.9766 5.46094C65.6641 5.48698 65.3516 5.51953 65.0391 5.55859C64.7266 5.59766 64.4206 5.64974 64.1211 5.71484C63.8216 5.76693 63.5612 5.8776 63.3398 6.04688C63.1315 6.21615 62.9688 6.45052 62.8516 6.75C62.7474 7.03646 62.7214 7.42708 62.7734 7.92188C62.7734 8.19531 62.793 8.5599 62.832 9.01562C62.8711 9.45833 62.9362 9.9401 63.0273 10.4609C63.1185 10.9818 63.2357 11.5091 63.3789 12.043C63.5221 12.5638 63.6979 13.0456 63.9062 13.4883C64.1276 13.918 64.375 14.2695 64.6484 14.543C64.9349 14.8034 65.2669 14.9336 65.6445 14.9336C65.9049 14.9596 66.237 14.9661 66.6406 14.9531C67.0573 14.9271 67.474 14.9076 67.8906 14.8945C68.3073 14.8815 68.6979 14.888 69.0625 14.9141C69.4401 14.9401 69.7135 15.0182 69.8828 15.1484C70.0521 15.2786 70.0911 15.474 70 15.7344C69.9089 15.9818 69.6224 16.3203 69.1406 16.75C68.3073 17.0625 67.4609 17.2773 66.6016 17.3945C65.7552 17.4987 64.9023 17.5573 64.043 17.5703C63.1836 17.5703 62.3242 17.5573 61.4648 17.5312C60.6055 17.4922 59.7526 17.4727 58.9062 17.4727C58.4245 16.8867 58.138 16.4375 58.0469 16.125C57.9557 15.8125 57.9883 15.5977 58.1445 15.4805C58.3138 15.3503 58.5742 15.2852 58.9258 15.2852C59.2904 15.2721 59.681 15.2852 60.0977 15.3242C60.5143 15.3503 60.931 15.3763 61.3477 15.4023C61.7643 15.4154 62.1094 15.3763 62.3828 15.2852Z" fill="#EFEFEF"/>
<path d="M71.5625 11.418C71.5625 11.0794 71.6471 10.8385 71.8164 10.6953C71.9857 10.5391 72.2591 10.4609 72.6367 10.4609H72.832C72.8711 10.6693 72.9167 10.9102 72.9688 11.1836C73.0208 11.457 73.099 11.737 73.2031 12.0234C73.3073 12.3099 73.431 12.5768 73.5742 12.8242C73.7174 13.0586 73.8932 13.2474 74.1016 13.3906C74.1146 12.9349 74.2253 12.4987 74.4336 12.082C74.6549 11.6523 74.9219 11.2747 75.2344 10.9492C75.5599 10.6107 75.9115 10.3307 76.2891 10.1094C76.6797 9.875 77.0638 9.71875 77.4414 9.64062H77.8711C78.4961 9.64062 79.0299 9.78385 79.4727 10.0703C79.9154 10.3438 80.2799 10.7083 80.5664 11.1641C80.8659 11.6068 81.0938 12.1146 81.25 12.6875C81.4062 13.2604 81.5234 13.8464 81.6016 14.4453C81.6927 15.0312 81.7448 15.6042 81.7578 16.1641C81.7839 16.7109 81.7969 17.1797 81.7969 17.5703H80.3711C80.293 16.7891 80.1953 16.0404 80.0781 15.3242C80.0391 15.0378 79.987 14.7383 79.9219 14.4258C79.8568 14.1003 79.7852 13.8008 79.707 13.5273C79.6289 13.2409 79.5443 12.9805 79.4531 12.7461C79.362 12.4987 79.2578 12.2904 79.1406 12.1211C79.0885 12.069 79.0169 11.9974 78.9258 11.9062C78.8477 11.8151 78.763 11.724 78.6719 11.6328C78.5807 11.5417 78.4961 11.4635 78.418 11.3984C78.3398 11.3333 78.2943 11.3008 78.2812 11.3008C77.8906 11.1966 77.5521 11.2747 77.2656 11.5352C76.9792 11.7826 76.7253 12.1211 76.5039 12.5508C76.2826 12.9805 76.1003 13.4688 75.957 14.0156C75.8268 14.5625 75.7161 15.0898 75.625 15.5977C75.5339 16.0924 75.4688 16.5286 75.4297 16.9062C75.3906 17.2708 75.3646 17.4922 75.3516 17.5703C75.026 17.8047 74.7201 17.8763 74.4336 17.7852C74.1471 17.681 73.8737 17.4727 73.6133 17.1602C73.3659 16.8477 73.138 16.457 72.9297 15.9883C72.7344 15.5195 72.5521 15.0247 72.3828 14.5039C72.2135 13.9701 72.0573 13.4362 71.9141 12.9023C71.7839 12.3685 71.6667 11.8737 71.5625 11.418Z" fill="#EFEFEF"/>
<path d="M83.9648 11.6523C83.9648 11.6133 83.9714 11.5417 83.9844 11.4375C83.9974 11.3203 84.0039 11.2552 84.0039 11.2422C84.2122 11.2422 84.4922 11.2292 84.8438 11.2031C85.2083 11.1641 85.6055 11.1315 86.0352 11.1055C86.4648 11.0664 86.9076 11.0273 87.3633 10.9883C87.832 10.9492 88.2747 10.9232 88.6914 10.9102C89.1081 10.8971 89.4922 10.8906 89.8438 10.8906C90.1953 10.8906 90.4688 10.9102 90.6641 10.9492C90.8984 10.9492 91.0612 10.9753 91.1523 11.0273C91.2565 11.0794 91.3086 11.2552 91.3086 11.5547C90.918 11.8151 90.4297 12.0104 89.8438 12.1406C89.2578 12.2578 88.6589 12.3424 88.0469 12.3945C87.4349 12.4466 86.8359 12.4727 86.25 12.4727C85.6771 12.4727 85.2083 12.4792 84.8438 12.4922C84.4922 12.5182 84.2578 12.4466 84.1406 12.2773C84.0234 12.1081 83.9648 11.8997 83.9648 11.6523Z" fill="#EFEFEF"/>
<path d="M92.7148 2.57031C92.7148 2.16667 92.7865 1.83464 92.9297 1.57422C93.0859 1.3138 93.2943 1.10547 93.5547 0.949219C93.8151 0.779948 94.1016 0.65625 94.4141 0.578125C94.7396 0.5 95.0716 0.447917 95.4102 0.421875C95.7617 0.382812 96.1003 0.369792 96.4258 0.382812C96.7513 0.382812 97.0508 0.382812 97.3242 0.382812C97.8581 0.382812 98.3919 0.434896 98.9258 0.539062C99.4596 0.643229 99.9284 0.825521 100.332 1.08594C100.749 1.34635 101.087 1.69792 101.348 2.14062C101.608 2.57031 101.738 3.11068 101.738 3.76172C101.738 4.33464 101.621 4.90755 101.387 5.48047C101.165 6.04036 100.872 6.58073 100.508 7.10156C100.156 7.60938 99.7526 8.07812 99.2969 8.50781C98.8411 8.92448 98.3854 9.28255 97.9297 9.58203C97.487 9.88151 97.0573 10.1159 96.6406 10.2852C96.237 10.4544 95.8984 10.5195 95.625 10.4805C95.4688 10.9883 95.3711 11.5352 95.332 12.1211C95.306 12.694 95.2995 13.2604 95.3125 13.8203C95.3255 14.3672 95.3451 14.8945 95.3711 15.4023C95.3971 15.8971 95.3711 16.3268 95.293 16.6914C95.2279 17.043 95.0977 17.3099 94.9023 17.4922C94.707 17.6615 94.4076 17.7135 94.0039 17.6484C93.8867 16.724 93.7956 15.7865 93.7305 14.8359C93.6784 13.8854 93.6328 12.9414 93.5938 12.0039C93.5547 11.0664 93.5156 10.1549 93.4766 9.26953C93.4505 8.37109 93.4049 7.51823 93.3398 6.71094C93.2878 5.90365 93.2096 5.14844 93.1055 4.44531C93.0013 3.74219 92.8711 3.11719 92.7148 2.57031ZM97.5391 2.0625C97.3438 2.0625 97.1029 2.06901 96.8164 2.08203C96.5299 2.09505 96.25 2.14062 95.9766 2.21875C95.7161 2.28385 95.4948 2.40755 95.3125 2.58984C95.1302 2.75911 95.0391 3.00651 95.0391 3.33203V8.44922C95.5729 8.44922 96.1393 8.30599 96.7383 8.01953C97.3372 7.73307 97.8841 7.36849 98.3789 6.92578C98.8737 6.48307 99.2839 5.98177 99.6094 5.42188C99.9349 4.86198 100.098 4.30859 100.098 3.76172C100.098 3.35807 100.02 3.04557 99.8633 2.82422C99.7201 2.60286 99.5247 2.43359 99.2773 2.31641C99.043 2.19922 98.776 2.1276 98.4766 2.10156C98.1771 2.07552 97.8646 2.0625 97.5391 2.0625Z" fill="#EFEFEF"/>
<path d="M103.008 6.94531C103.008 6.56771 102.982 6.20312 102.93 5.85156C102.878 5.48698 102.865 5.16797 102.891 4.89453C102.917 4.60807 103.014 4.38021 103.184 4.21094C103.366 4.04167 103.691 3.95703 104.16 3.95703C104.303 4.25651 104.44 4.71224 104.57 5.32422C104.714 5.9362 104.85 6.63932 104.98 7.43359C105.111 8.22786 105.234 9.09375 105.352 10.0312C105.469 10.9557 105.573 11.8867 105.664 12.8242C105.768 13.7617 105.853 14.6862 105.918 15.5977C105.996 16.4961 106.055 17.3164 106.094 18.0586C105.664 18.3451 105.319 18.3646 105.059 18.1172C104.798 17.8698 104.583 17.4531 104.414 16.8672C104.245 16.2682 104.115 15.5456 104.023 14.6992C103.932 13.8398 103.841 12.9544 103.75 12.043C103.672 11.1185 103.574 10.2135 103.457 9.32812C103.34 8.42969 103.19 7.63542 103.008 6.94531Z" fill="#EFEFEF"/>
<path d="M115.508 15.4805C115.013 15.819 114.583 16.125 114.219 16.3984C113.867 16.6589 113.522 16.8802 113.184 17.0625C112.845 17.2448 112.48 17.3815 112.09 17.4727C111.712 17.5638 111.243 17.6094 110.684 17.6094C109.473 17.6094 108.574 17.2904 107.988 16.6523C107.402 16.0013 107.109 15.0378 107.109 13.7617C107.109 13.2669 107.174 12.7526 107.305 12.2188C107.435 11.6849 107.624 11.1576 107.871 10.6367C108.132 10.1029 108.438 9.60156 108.789 9.13281C109.141 8.65104 109.538 8.22786 109.98 7.86328C110.423 7.4987 110.892 7.21224 111.387 7.00391C111.895 6.78255 112.428 6.67188 112.988 6.67188C113.926 6.76302 114.661 6.9974 115.195 7.375C115.729 7.73958 116.133 8.21484 116.406 8.80078C116.68 9.3737 116.868 10.0182 116.973 10.7344C117.077 11.4375 117.155 12.1667 117.207 12.9219C117.272 13.6771 117.35 14.4323 117.441 15.1875C117.533 15.9427 117.721 16.6393 118.008 17.2773C117.839 17.707 117.676 18.0065 117.52 18.1758C117.376 18.3581 117.214 18.3906 117.031 18.2734C116.849 18.1562 116.634 17.8698 116.387 17.4141C116.152 16.9583 115.859 16.3138 115.508 15.4805ZM108.77 13.8008C108.77 14.543 108.906 15.0898 109.18 15.4414C109.466 15.7799 109.967 15.9492 110.684 15.9492C111.217 15.9492 111.725 15.8581 112.207 15.6758C112.702 15.4805 113.132 15.2201 113.496 14.8945C113.861 14.556 114.154 14.1523 114.375 13.6836C114.596 13.2148 114.707 12.694 114.707 12.1211C114.707 11.8867 114.714 11.5612 114.727 11.1445C114.74 10.7148 114.714 10.2917 114.648 9.875C114.583 9.45833 114.46 9.10026 114.277 8.80078C114.095 8.48828 113.822 8.33203 113.457 8.33203C112.78 8.33203 112.155 8.50781 111.582 8.85938C111.009 9.19792 110.514 9.63411 110.098 10.168C109.681 10.7018 109.355 11.2943 109.121 11.9453C108.887 12.5833 108.77 13.2018 108.77 13.8008Z" fill="#EFEFEF"/>
<path d="M118.848 12.1211C118.848 11.5742 118.965 11.0013 119.199 10.4023C119.447 9.80339 119.772 9.26302 120.176 8.78125C120.579 8.28646 121.042 7.8763 121.562 7.55078C122.096 7.22526 122.656 7.0625 123.242 7.0625C123.542 7.0625 123.841 7.11458 124.141 7.21875C124.44 7.32292 124.707 7.47266 124.941 7.66797C125.189 7.86328 125.384 8.09766 125.527 8.37109C125.684 8.64453 125.762 8.95052 125.762 9.28906C125.527 9.28906 125.312 9.26302 125.117 9.21094C124.935 9.15885 124.753 9.10026 124.57 9.03516C124.388 8.95703 124.206 8.89193 124.023 8.83984C123.854 8.78776 123.665 8.76172 123.457 8.76172C122.923 8.76172 122.487 8.89844 122.148 9.17188C121.823 9.43229 121.562 9.76432 121.367 10.168C121.172 10.5716 121.035 11.0078 120.957 11.4766C120.892 11.9323 120.859 12.362 120.859 12.7656C120.859 12.8307 120.859 12.9544 120.859 13.1367C120.872 13.319 120.879 13.5143 120.879 13.7227C120.892 13.918 120.898 14.1068 120.898 14.2891C120.911 14.4714 120.924 14.5951 120.938 14.6602C121.081 14.9727 121.217 15.2135 121.348 15.3828C121.491 15.5521 121.641 15.6823 121.797 15.7734C121.953 15.8516 122.122 15.9036 122.305 15.9297C122.487 15.9427 122.702 15.9492 122.949 15.9492C123.288 15.9492 123.581 15.8971 123.828 15.793C124.089 15.6888 124.329 15.5651 124.551 15.4219C124.772 15.2786 124.98 15.1224 125.176 14.9531C125.371 14.7708 125.573 14.6081 125.781 14.4648C126.003 14.3086 126.237 14.1849 126.484 14.0938C126.745 13.9896 127.038 13.9375 127.363 13.9375C127.363 14.5755 127.246 15.1419 127.012 15.6367C126.79 16.1315 126.471 16.5547 126.055 16.9062C125.651 17.2578 125.169 17.5312 124.609 17.7266C124.062 17.9089 123.464 18 122.812 18C122.201 18 121.647 17.7917 121.152 17.375C120.671 16.9583 120.254 16.4505 119.902 15.8516C119.564 15.2396 119.303 14.5951 119.121 13.918C118.939 13.2409 118.848 12.6419 118.848 12.1211Z" fill="#EFEFEF"/>
<path d="M128.457 12.5703C128.457 11.8672 128.542 11.1641 128.711 10.4609C128.88 9.75781 129.147 9.1263 129.512 8.56641C129.889 8.00651 130.371 7.55078 130.957 7.19922C131.556 6.84766 132.279 6.67188 133.125 6.67188C133.607 6.67188 134.03 6.76302 134.395 6.94531C134.759 7.11458 135.065 7.34245 135.312 7.62891C135.56 7.91536 135.742 8.25391 135.859 8.64453C135.99 9.02214 136.055 9.41927 136.055 9.83594C136.055 10.5 135.898 11.1445 135.586 11.7695C135.286 12.3945 134.876 12.9479 134.355 13.4297C133.848 13.8984 133.262 14.2565 132.598 14.5039C131.934 14.7383 131.257 14.7904 130.566 14.6602C130.579 15.0378 130.703 15.3438 130.938 15.5781C131.185 15.7995 131.478 15.9688 131.816 16.0859C132.155 16.2031 132.507 16.2812 132.871 16.3203C133.236 16.3464 133.561 16.3594 133.848 16.3594C134.147 16.3594 134.427 16.3333 134.688 16.2812C134.948 16.2292 135.208 16.1706 135.469 16.1055C135.729 16.0404 135.99 15.9818 136.25 15.9297C136.523 15.8776 136.81 15.8516 137.109 15.8516C137.227 15.8516 137.344 15.8581 137.461 15.8711C137.578 15.8841 137.689 15.9167 137.793 15.9688C137.897 16.0078 137.982 16.0794 138.047 16.1836C138.112 16.2747 138.145 16.3919 138.145 16.5352C138.145 16.7826 138.053 16.9909 137.871 17.1602C137.689 17.3164 137.454 17.4531 137.168 17.5703C136.895 17.6875 136.589 17.7786 136.25 17.8438C135.911 17.8958 135.579 17.9414 135.254 17.9805C134.941 18.0065 134.648 18.0195 134.375 18.0195C134.115 18.0326 133.919 18.0391 133.789 18.0391C132.956 18.0391 132.207 17.9089 131.543 17.6484C130.879 17.375 130.319 17.0039 129.863 16.5352C129.408 16.0534 129.056 15.4805 128.809 14.8164C128.574 14.1393 128.457 13.3906 128.457 12.5703ZM130.527 11.3008C130.527 11.7565 130.586 12.0885 130.703 12.2969C130.833 12.5052 131.139 12.6094 131.621 12.6094C131.96 12.6094 132.292 12.5508 132.617 12.4336C132.943 12.3034 133.236 12.1276 133.496 11.9062C133.77 11.6849 133.984 11.4245 134.141 11.125C134.297 10.8255 134.375 10.5 134.375 10.1484C134.375 9.95312 134.355 9.7513 134.316 9.54297C134.29 9.33464 134.225 9.14583 134.121 8.97656C134.017 8.79427 133.88 8.65104 133.711 8.54688C133.555 8.42969 133.346 8.37109 133.086 8.37109C132.695 8.37109 132.337 8.46224 132.012 8.64453C131.699 8.8138 131.432 9.04167 131.211 9.32812C130.99 9.60156 130.82 9.91406 130.703 10.2656C130.586 10.6042 130.527 10.9492 130.527 11.3008Z" fill="#EFEFEF"/>
<path d="M151.309 17.1602C151.374 16.8477 151.536 16.5938 151.797 16.3984C152.07 16.1901 152.376 16.0013 152.715 15.832C153.066 15.6628 153.431 15.5065 153.809 15.3633C154.186 15.207 154.531 15.0443 154.844 14.875C155.169 14.7057 155.436 14.5104 155.645 14.2891C155.853 14.0547 155.957 13.7747 155.957 13.4492C155.957 13.0326 155.846 12.6875 155.625 12.4141C155.417 12.1406 155.13 11.9062 154.766 11.7109C154.414 11.5156 154.01 11.3529 153.555 11.2227C153.099 11.0924 152.63 10.9622 152.148 10.832C151.68 10.6888 151.217 10.5391 150.762 10.3828C150.306 10.2135 149.896 10.0052 149.531 9.75781C149.18 9.51042 148.893 9.21094 148.672 8.85938C148.464 8.50781 148.359 8.07161 148.359 7.55078C148.359 7.12109 148.444 6.71745 148.613 6.33984C148.796 5.94922 149.03 5.58464 149.316 5.24609C149.616 4.89453 149.954 4.57552 150.332 4.28906C150.723 4.0026 151.126 3.76172 151.543 3.56641C151.973 3.37109 152.402 3.22135 152.832 3.11719C153.262 3 153.659 2.94141 154.023 2.94141H154.238C154.355 2.98047 154.512 3.04557 154.707 3.13672C154.902 3.22786 155.091 3.31901 155.273 3.41016C155.456 3.48828 155.612 3.56641 155.742 3.64453C155.872 3.70964 155.938 3.7487 155.938 3.76172V4.21094C155.69 4.23698 155.371 4.28906 154.98 4.36719C154.59 4.43229 154.18 4.52344 153.75 4.64062C153.32 4.75781 152.884 4.90755 152.441 5.08984C151.999 5.25911 151.602 5.46094 151.25 5.69531C150.898 5.92969 150.612 6.20312 150.391 6.51562C150.169 6.8151 150.059 7.16016 150.059 7.55078C150.059 8.11068 150.254 8.55339 150.645 8.87891C151.035 9.19141 151.523 9.45182 152.109 9.66016C152.695 9.86849 153.333 10.0573 154.023 10.2266C154.727 10.3828 155.371 10.5781 155.957 10.8125C156.543 11.0339 157.031 11.3333 157.422 11.7109C157.812 12.0755 158.008 12.5703 158.008 13.1953C158.008 13.5339 157.904 13.8919 157.695 14.2695C157.5 14.6341 157.233 14.9987 156.895 15.3633C156.569 15.7148 156.198 16.0534 155.781 16.3789C155.365 16.7044 154.935 16.9909 154.492 17.2383C154.062 17.4727 153.639 17.668 153.223 17.8242C152.806 17.9674 152.435 18.0391 152.109 18.0391C152.005 18.0391 151.895 18.026 151.777 18C151.66 17.974 151.556 17.9349 151.465 17.8828C151.387 17.8177 151.322 17.7266 151.27 17.6094C151.23 17.4922 151.243 17.3424 151.309 17.1602Z" fill="#EFEFEF"/>
<path d="M158.809 10.0312C158.809 9.95312 158.809 9.81641 158.809 9.62109C158.822 9.41276 158.828 9.19792 158.828 8.97656C158.828 8.75521 158.828 8.55339 158.828 8.37109C158.841 8.17578 158.848 8.03906 158.848 7.96094C158.939 7.80469 159.043 7.65495 159.16 7.51172C159.29 7.35547 159.421 7.2513 159.551 7.19922C159.694 7.13411 159.844 7.12109 160 7.16016C160.169 7.19922 160.339 7.32943 160.508 7.55078V7.96094C160.495 8.02604 160.469 8.18229 160.43 8.42969C160.391 8.66406 160.345 8.92448 160.293 9.21094C160.241 9.4974 160.189 9.76432 160.137 10.0117C160.098 10.2461 160.078 10.3958 160.078 10.4609C160.078 10.7083 160.104 11.0208 160.156 11.3984C160.208 11.763 160.28 12.1471 160.371 12.5508C160.475 12.9544 160.599 13.3581 160.742 13.7617C160.898 14.1654 161.081 14.5299 161.289 14.8555C161.497 15.168 161.725 15.4284 161.973 15.6367C162.233 15.8451 162.533 15.9492 162.871 15.9492C163.288 15.9492 163.652 15.8385 163.965 15.6172C164.29 15.3958 164.57 15.1094 164.805 14.7578C165.039 14.4062 165.228 14.0091 165.371 13.5664C165.527 13.1237 165.651 12.681 165.742 12.2383C165.833 11.7826 165.898 11.3464 165.938 10.9297C165.977 10.513 165.996 10.1484 165.996 9.83594C165.996 9.52344 165.97 9.23047 165.918 8.95703C165.879 8.67057 165.827 8.39062 165.762 8.11719C165.697 7.84375 165.638 7.57682 165.586 7.31641C165.547 7.04297 165.527 6.76953 165.527 6.49609C165.527 6.2487 165.612 6.07292 165.781 5.96875C165.964 5.86458 166.165 5.8125 166.387 5.8125C166.66 5.8125 166.882 5.89714 167.051 6.06641C167.22 6.22266 167.35 6.42448 167.441 6.67188C167.546 6.91927 167.611 7.20573 167.637 7.53125C167.676 7.84375 167.695 8.15625 167.695 8.46875C167.695 8.78125 167.689 9.08073 167.676 9.36719C167.663 9.64062 167.656 9.86198 167.656 10.0312C167.656 10.474 167.624 10.9753 167.559 11.5352C167.493 12.0951 167.376 12.6745 167.207 13.2734C167.051 13.8594 166.849 14.4388 166.602 15.0117C166.367 15.5846 166.074 16.099 165.723 16.5547C165.384 16.9974 164.987 17.3555 164.531 17.6289C164.089 17.9023 163.587 18.0391 163.027 18.0391C162.441 18.0391 161.927 17.9023 161.484 17.6289C161.042 17.3424 160.664 16.9714 160.352 16.5156C160.052 16.0469 159.798 15.5195 159.59 14.9336C159.382 14.3477 159.219 13.7617 159.102 13.1758C158.997 12.5898 158.919 12.0234 158.867 11.4766C158.828 10.9167 158.809 10.4349 158.809 10.0312Z" fill="#EFEFEF"/>
<path d="M168.848 9.79688C168.848 9.67969 168.854 9.5625 168.867 9.44531C168.88 9.3151 168.906 9.20443 168.945 9.11328C168.984 9.00911 169.043 8.92448 169.121 8.85938C169.212 8.79427 169.336 8.76172 169.492 8.76172C169.622 8.76172 169.766 8.86589 169.922 9.07422C170.091 9.26953 170.26 9.52344 170.43 9.83594C170.599 10.1354 170.762 10.4674 170.918 10.832C171.087 11.1966 171.23 11.5352 171.348 11.8477C171.478 12.1471 171.582 12.4076 171.66 12.6289C171.738 12.8503 171.784 12.9674 171.797 12.9805C171.966 12.5247 172.155 12.0299 172.363 11.4961C172.572 10.9622 172.826 10.4674 173.125 10.0117C173.438 9.54297 173.802 9.15234 174.219 8.83984C174.648 8.52734 175.169 8.37109 175.781 8.37109C176.094 8.37109 176.387 8.42318 176.66 8.52734C176.947 8.61849 177.194 8.76172 177.402 8.95703C177.624 9.13932 177.799 9.36068 177.93 9.62109C178.06 9.88151 178.125 10.181 178.125 10.5195C178.125 10.806 178.008 11.0078 177.773 11.125C177.552 11.2422 177.298 11.3008 177.012 11.3008H176.816L175.977 10.4609C175.951 10.4609 175.931 10.4544 175.918 10.4414C175.892 10.4414 175.866 10.4414 175.84 10.4414C175.827 10.4284 175.807 10.4219 175.781 10.4219C175.326 10.4219 174.967 10.5521 174.707 10.8125C174.46 11.0599 174.271 11.3724 174.141 11.75C174.01 12.1146 173.926 12.5052 173.887 12.9219C173.861 13.3255 173.848 13.6966 173.848 14.0352C173.848 14.2956 173.874 14.5625 173.926 14.8359C173.978 15.0964 174.036 15.3568 174.102 15.6172C174.167 15.8646 174.225 16.125 174.277 16.3984C174.329 16.6589 174.355 16.9323 174.355 17.2188C174.355 17.7656 174.062 18.0391 173.477 18.0391C173.151 18.0391 172.812 17.8698 172.461 17.5312C172.109 17.1797 171.758 16.737 171.406 16.2031C171.068 15.6693 170.742 15.0833 170.43 14.4453C170.117 13.7943 169.844 13.1628 169.609 12.5508C169.375 11.9388 169.186 11.3854 169.043 10.8906C168.913 10.3958 168.848 10.0312 168.848 9.79688Z" fill="#EFEFEF"/>
<path d="M178.711 7.82422C178.802 7.51172 178.906 7.36849 179.023 7.39453C179.154 7.42057 179.31 7.57031 179.492 7.84375C179.674 8.11719 179.876 8.48177 180.098 8.9375C180.332 9.39323 180.579 9.88802 180.84 10.4219C181.1 10.9427 181.38 11.4766 181.68 12.0234C181.992 12.5703 182.311 13.0716 182.637 13.5273C182.975 13.9831 183.327 14.3607 183.691 14.6602C184.069 14.9596 184.453 15.1354 184.844 15.1875L186.406 7.10156C186.432 6.88021 186.53 6.75651 186.699 6.73047C186.882 6.69141 187.057 6.67188 187.227 6.67188C187.812 6.67188 188.105 6.94531 188.105 7.49219C188.105 7.77865 188.079 8.23438 188.027 8.85938C187.975 9.48438 187.891 10.1745 187.773 10.9297C187.656 11.6719 187.513 12.4401 187.344 13.2344C187.174 14.0156 186.973 14.7318 186.738 15.3828C186.504 16.0339 186.23 16.5677 185.918 16.9844C185.618 17.401 185.286 17.6094 184.922 17.6094C184.388 17.6094 183.861 17.4336 183.34 17.082C182.819 16.7174 182.324 16.2487 181.855 15.6758C181.4 15.0898 180.977 14.4388 180.586 13.7227C180.208 13.0065 179.876 12.2904 179.59 11.5742C179.316 10.8451 179.102 10.1484 178.945 9.48438C178.789 8.82031 178.711 8.26693 178.711 7.82422Z" fill="#EFEFEF"/>
<path d="M190.098 10.6758C190.098 10.5977 190.098 10.474 190.098 10.3047C190.111 10.1224 190.117 9.93359 190.117 9.73828C190.13 9.54297 190.137 9.35417 190.137 9.17188C190.15 8.98958 190.156 8.85938 190.156 8.78125C190.299 8.57292 190.482 8.40365 190.703 8.27344C190.938 8.14323 191.172 8.03906 191.406 7.96094C191.445 8.66406 191.556 9.41276 191.738 10.207C191.921 11.0013 192.116 11.8021 192.324 12.6094C192.533 13.4036 192.715 14.1914 192.871 14.9727C193.04 15.7539 193.125 16.4831 193.125 17.1602C193.125 17.7461 192.826 18.0391 192.227 18.0391C191.862 18.0391 191.556 17.8893 191.309 17.5898C191.061 17.2904 190.859 16.9128 190.703 16.457C190.56 15.9883 190.443 15.474 190.352 14.9141C190.26 14.3411 190.195 13.7812 190.156 13.2344C190.13 12.6875 190.111 12.1862 190.098 11.7305C190.098 11.2747 190.098 10.9232 190.098 10.6758ZM190.371 3.35156C190.618 3.45573 190.827 3.625 190.996 3.85938C191.165 4.09375 191.237 4.30859 191.211 4.50391C191.198 4.6862 191.055 4.81641 190.781 4.89453C190.508 4.95964 190.052 4.88151 189.414 4.66016C189.414 4.30859 189.479 4.0026 189.609 3.74219C189.753 3.48177 190.007 3.35156 190.371 3.35156Z" fill="#EFEFEF"/>
<path d="M193.77 7.82422C193.861 7.51172 193.965 7.36849 194.082 7.39453C194.212 7.42057 194.368 7.57031 194.551 7.84375C194.733 8.11719 194.935 8.48177 195.156 8.9375C195.391 9.39323 195.638 9.88802 195.898 10.4219C196.159 10.9427 196.439 11.4766 196.738 12.0234C197.051 12.5703 197.37 13.0716 197.695 13.5273C198.034 13.9831 198.385 14.3607 198.75 14.6602C199.128 14.9596 199.512 15.1354 199.902 15.1875L201.465 7.10156C201.491 6.88021 201.589 6.75651 201.758 6.73047C201.94 6.69141 202.116 6.67188 202.285 6.67188C202.871 6.67188 203.164 6.94531 203.164 7.49219C203.164 7.77865 203.138 8.23438 203.086 8.85938C203.034 9.48438 202.949 10.1745 202.832 10.9297C202.715 11.6719 202.572 12.4401 202.402 13.2344C202.233 14.0156 202.031 14.7318 201.797 15.3828C201.562 16.0339 201.289 16.5677 200.977 16.9844C200.677 17.401 200.345 17.6094 199.98 17.6094C199.447 17.6094 198.919 17.4336 198.398 17.082C197.878 16.7174 197.383 16.2487 196.914 15.6758C196.458 15.0898 196.035 14.4388 195.645 13.7227C195.267 13.0065 194.935 12.2904 194.648 11.5742C194.375 10.8451 194.16 10.1484 194.004 9.48438C193.848 8.82031 193.77 8.26693 193.77 7.82422Z" fill="#EFEFEF"/>
<path d="M212.734 15.4805C212.24 15.819 211.81 16.125 211.445 16.3984C211.094 16.6589 210.749 16.8802 210.41 17.0625C210.072 17.2448 209.707 17.3815 209.316 17.4727C208.939 17.5638 208.47 17.6094 207.91 17.6094C206.699 17.6094 205.801 17.2904 205.215 16.6523C204.629 16.0013 204.336 15.0378 204.336 13.7617C204.336 13.2669 204.401 12.7526 204.531 12.2188C204.661 11.6849 204.85 11.1576 205.098 10.6367C205.358 10.1029 205.664 9.60156 206.016 9.13281C206.367 8.65104 206.764 8.22786 207.207 7.86328C207.65 7.4987 208.118 7.21224 208.613 7.00391C209.121 6.78255 209.655 6.67188 210.215 6.67188C211.152 6.76302 211.888 6.9974 212.422 7.375C212.956 7.73958 213.359 8.21484 213.633 8.80078C213.906 9.3737 214.095 10.0182 214.199 10.7344C214.303 11.4375 214.382 12.1667 214.434 12.9219C214.499 13.6771 214.577 14.4323 214.668 15.1875C214.759 15.9427 214.948 16.6393 215.234 17.2773C215.065 17.707 214.902 18.0065 214.746 18.1758C214.603 18.3581 214.44 18.3906 214.258 18.2734C214.076 18.1562 213.861 17.8698 213.613 17.4141C213.379 16.9583 213.086 16.3138 212.734 15.4805ZM205.996 13.8008C205.996 14.543 206.133 15.0898 206.406 15.4414C206.693 15.7799 207.194 15.9492 207.91 15.9492C208.444 15.9492 208.952 15.8581 209.434 15.6758C209.928 15.4805 210.358 15.2201 210.723 14.8945C211.087 14.556 211.38 14.1523 211.602 13.6836C211.823 13.2148 211.934 12.694 211.934 12.1211C211.934 11.8867 211.94 11.5612 211.953 11.1445C211.966 10.7148 211.94 10.2917 211.875 9.875C211.81 9.45833 211.686 9.10026 211.504 8.80078C211.322 8.48828 211.048 8.33203 210.684 8.33203C210.007 8.33203 209.382 8.50781 208.809 8.85938C208.236 9.19792 207.741 9.63411 207.324 10.168C206.908 10.7018 206.582 11.2943 206.348 11.9453C206.113 12.5833 205.996 13.2018 205.996 13.8008Z" fill="#EFEFEF"/>
<path d="M216.934 6.94531C216.934 6.56771 216.908 6.20312 216.855 5.85156C216.803 5.48698 216.79 5.16797 216.816 4.89453C216.842 4.60807 216.94 4.38021 217.109 4.21094C217.292 4.04167 217.617 3.95703 218.086 3.95703C218.229 4.25651 218.366 4.71224 218.496 5.32422C218.639 5.9362 218.776 6.63932 218.906 7.43359C219.036 8.22786 219.16 9.09375 219.277 10.0312C219.395 10.9557 219.499 11.8867 219.59 12.8242C219.694 13.7617 219.779 14.6862 219.844 15.5977C219.922 16.4961 219.98 17.3164 220.02 18.0586C219.59 18.3451 219.245 18.3646 218.984 18.1172C218.724 17.8698 218.509 17.4531 218.34 16.8672C218.171 16.2682 218.04 15.5456 217.949 14.6992C217.858 13.8398 217.767 12.9544 217.676 12.043C217.598 11.1185 217.5 10.2135 217.383 9.32812C217.266 8.42969 217.116 7.63542 216.934 6.94531Z" fill="#EFEFEF"/>
<path d="M230.039 4.48438C230.039 4.23698 230.033 3.97005 230.02 3.68359C230.007 3.39714 230.026 3.13021 230.078 2.88281C230.143 2.63542 230.247 2.43359 230.391 2.27734C230.547 2.10807 230.794 2.02344 231.133 2.02344C231.38 2.36198 231.536 2.78516 231.602 3.29297C231.68 3.78776 231.732 4.3151 231.758 4.875C231.784 5.42188 231.81 5.96875 231.836 6.51562C231.875 7.0625 231.986 7.54427 232.168 7.96094C232.181 8.01302 232.24 8.09115 232.344 8.19531C232.461 8.28646 232.539 8.34505 232.578 8.37109C232.969 8.03255 233.32 7.68099 233.633 7.31641C233.958 6.95182 234.277 6.60026 234.59 6.26172C234.902 5.91016 235.215 5.57812 235.527 5.26562C235.84 4.95312 236.178 4.67969 236.543 4.44531C236.921 4.21094 237.337 4.02865 237.793 3.89844C238.262 3.75521 238.789 3.68359 239.375 3.68359C239.375 3.99609 239.264 4.30859 239.043 4.62109C238.822 4.93359 238.542 5.2526 238.203 5.57812C237.865 5.89062 237.493 6.21615 237.09 6.55469C236.686 6.88021 236.296 7.21875 235.918 7.57031C235.54 7.90885 235.202 8.25391 234.902 8.60547C234.603 8.94401 234.388 9.28906 234.258 9.64062C234.479 9.69271 234.844 9.82292 235.352 10.0312C235.872 10.2266 236.458 10.474 237.109 10.7734C237.773 11.0599 238.457 11.3724 239.16 11.7109C239.863 12.0495 240.508 12.388 241.094 12.7266C241.68 13.0521 242.155 13.3646 242.52 13.6641C242.897 13.9505 243.086 14.1849 243.086 14.3672C243.086 14.4062 243.086 14.4909 243.086 14.6211C243.086 14.7383 243.073 14.862 243.047 14.9922C243.034 15.1224 242.995 15.2396 242.93 15.3438C242.865 15.4349 242.76 15.4805 242.617 15.4805C242.07 15.4674 241.556 15.3698 241.074 15.1875C240.592 14.9922 240.124 14.7578 239.668 14.4844C239.212 14.1979 238.757 13.9049 238.301 13.6055C237.858 13.293 237.402 13 236.934 12.7266C236.465 12.4401 235.977 12.2122 235.469 12.043C234.974 11.8607 234.434 11.7565 233.848 11.7305C233.652 12.043 233.568 12.349 233.594 12.6484C233.62 12.9349 233.704 13.2279 233.848 13.5273C234.004 13.8138 234.186 14.1133 234.395 14.4258C234.603 14.7253 234.785 15.0443 234.941 15.3828C235.098 15.7083 235.202 16.0534 235.254 16.418C235.306 16.7826 235.247 17.1667 235.078 17.5703C235.052 17.6094 235 17.6549 234.922 17.707C234.857 17.7461 234.779 17.7917 234.688 17.8438C234.609 17.8958 234.525 17.9349 234.434 17.9609C234.342 17.987 234.284 18 234.258 18C234.089 18 233.9 17.8372 233.691 17.5117C233.496 17.1862 233.281 16.7435 233.047 16.1836C232.826 15.6237 232.591 14.9857 232.344 14.2695C232.109 13.5404 231.875 12.7917 231.641 12.0234C231.419 11.2422 231.211 10.4609 231.016 9.67969C230.833 8.88542 230.664 8.14974 230.508 7.47266C230.365 6.78255 230.247 6.17708 230.156 5.65625C230.078 5.13542 230.039 4.74479 230.039 4.48438Z" fill="#EFEFEF"/>
<path d="M244.648 10.6758C244.648 10.5977 244.648 10.474 244.648 10.3047C244.661 10.1224 244.668 9.93359 244.668 9.73828C244.681 9.54297 244.688 9.35417 244.688 9.17188C244.701 8.98958 244.707 8.85938 244.707 8.78125C244.85 8.57292 245.033 8.40365 245.254 8.27344C245.488 8.14323 245.723 8.03906 245.957 7.96094C245.996 8.66406 246.107 9.41276 246.289 10.207C246.471 11.0013 246.667 11.8021 246.875 12.6094C247.083 13.4036 247.266 14.1914 247.422 14.9727C247.591 15.7539 247.676 16.4831 247.676 17.1602C247.676 17.7461 247.376 18.0391 246.777 18.0391C246.413 18.0391 246.107 17.8893 245.859 17.5898C245.612 17.2904 245.41 16.9128 245.254 16.457C245.111 15.9883 244.993 15.474 244.902 14.9141C244.811 14.3411 244.746 13.7812 244.707 13.2344C244.681 12.6875 244.661 12.1862 244.648 11.7305C244.648 11.2747 244.648 10.9232 244.648 10.6758ZM244.922 3.35156C245.169 3.45573 245.378 3.625 245.547 3.85938C245.716 4.09375 245.788 4.30859 245.762 4.50391C245.749 4.6862 245.605 4.81641 245.332 4.89453C245.059 4.95964 244.603 4.88151 243.965 4.66016C243.965 4.30859 244.03 4.0026 244.16 3.74219C244.303 3.48177 244.557 3.35156 244.922 3.35156Z" fill="#EFEFEF"/>
<path d="M248.008 8.15625C248.008 8.11719 248.014 8.08464 248.027 8.05859C248.027 8.03255 248.034 8 248.047 7.96094C248.099 7.89583 248.177 7.8112 248.281 7.70703C248.385 7.60286 248.451 7.55078 248.477 7.55078H252.402C252.402 7.40755 252.383 7.17969 252.344 6.86719C252.305 6.55469 252.266 6.20964 252.227 5.83203C252.201 5.45443 252.194 5.0638 252.207 4.66016C252.22 4.24349 252.272 3.8724 252.363 3.54688C252.467 3.20833 252.624 2.9349 252.832 2.72656C253.053 2.50521 253.359 2.39453 253.75 2.39453C253.75 3.70964 253.841 4.76432 254.023 5.55859C254.206 6.35286 254.447 6.96484 254.746 7.39453C255.059 7.82422 255.41 8.10417 255.801 8.23438C256.191 8.36458 256.589 8.42318 256.992 8.41016C257.409 8.38411 257.812 8.31901 258.203 8.21484C258.594 8.11068 258.939 8.03906 259.238 8C259.551 7.96094 259.798 7.99349 259.98 8.09766C260.163 8.1888 260.254 8.41667 260.254 8.78125C260.254 9.05469 260.189 9.25 260.059 9.36719C259.941 9.48438 259.707 9.57552 259.355 9.64062C259.251 9.65365 259.076 9.67969 258.828 9.71875C258.594 9.74479 258.327 9.77083 258.027 9.79688C257.728 9.82292 257.409 9.85547 257.07 9.89453C256.732 9.92057 256.413 9.94661 256.113 9.97266C255.814 9.9987 255.54 10.0182 255.293 10.0312C255.046 10.0312 254.863 10.0312 254.746 10.0312C254.746 10.0964 254.74 10.207 254.727 10.3633C254.714 10.5195 254.707 10.6237 254.707 10.6758C254.707 11.2487 254.798 11.8086 254.98 12.3555C255.163 12.8893 255.358 13.4232 255.566 13.957C255.788 14.4909 255.99 15.0247 256.172 15.5586C256.354 16.0924 256.445 16.6458 256.445 17.2188C256.445 17.3229 256.432 17.4336 256.406 17.5508C256.393 17.6549 256.354 17.7526 256.289 17.8438C256.237 17.9219 256.152 17.9805 256.035 18.0195C255.931 18.0716 255.781 18.0651 255.586 18C255.091 17.8698 254.72 17.5898 254.473 17.1602C254.238 16.7305 254.062 16.2227 253.945 15.6367C253.828 15.0378 253.75 14.4062 253.711 13.7422C253.672 13.0781 253.607 12.4596 253.516 11.8867C253.438 11.3008 253.307 10.806 253.125 10.4023C252.943 9.98568 252.65 9.73177 252.246 9.64062L248.477 8.78125C248.424 8.78125 248.346 8.72917 248.242 8.625C248.138 8.50781 248.073 8.42318 248.047 8.37109C248.034 8.34505 248.027 8.3125 248.027 8.27344C248.014 8.2474 248.008 8.20833 248.008 8.15625Z" fill="#EFEFEF"/>
</svg>
